HIERARCHY
ROOT RootJoint
{
    OFFSET   0.000000   0.000000   0.000000
    CHANNELS 6 Xposition Yposition Zposition Xrotation Yrotation Zrotation
    JOINT pelvis_lowerback
    {
        OFFSET   0.000000   0.093605   0.000000
        CHANNELS 3 Xrotation Yrotation Zrotation
        JOINT lowerback_torso
        {
            OFFSET   0.000000   0.100000   0.000000
            CHANNELS 3 Xrotation Yrotation Zrotation
            JOINT torso_head
            {
                OFFSET   0.000000   0.282350   0.000000
                CHANNELS 3 Xrotation Yrotation Zrotation
                End Site
                {
                    OFFSET   0.000000   0.192650   0.000000
                }
            }
            JOINT rTorso_Clavicle
            {
                OFFSET  -0.001000   0.157500   0.000000
                CHANNELS 3 Xrotation Yrotation Zrotation
                JOINT rShoulder
                {
                    OFFSET  -0.117647   0.000000   0.000000
                    CHANNELS 3 Xrotation Yrotation Zrotation
                    JOINT rElbow
                    {
                        OFFSET  -0.245000   0.000000   0.000000
                        CHANNELS 3 Xrotation Yrotation Zrotation
                        JOINT rWrist
                        {
                            OFFSET  -0.240000   0.000000   0.000000
                            CHANNELS 3 Xrotation Yrotation Zrotation
                            End Site
                            {
                                OFFSET  -0.116353  -0.002500   0.000000
                            }
                        }
                    }
                }
            }
            JOINT lTorso_Clavicle
            {
                OFFSET   0.001000   0.157500   0.000000
                CHANNELS 3 Xrotation Yrotation Zrotation
                JOINT lShoulder
                {
                    OFFSET   0.117647   0.000000   0.000000
                    CHANNELS 3 Xrotation Yrotation Zrotation
                    JOINT lElbow
                    {
                        OFFSET   0.245000   0.000000   0.000000
                        CHANNELS 3 Xrotation Yrotation Zrotation
                        JOINT lWrist
                        {
                            OFFSET   0.240000   0.000000   0.000000
                            CHANNELS 3 Xrotation Yrotation Zrotation
                            End Site
                            {
                                OFFSET   0.116353  -0.002500   0.000000
                            }
                        }
                    }
                }
            }
        }
    }
    JOINT rHip
    {
        OFFSET  -0.100000  -0.051395   0.000000
        CHANNELS 3 Xrotation Yrotation Zrotation
        JOINT rKnee
        {
            OFFSET   0.000000  -0.410000   0.000000
            CHANNELS 3 Xrotation Yrotation Zrotation
            JOINT rAnkle
            {
                OFFSET   0.000000  -0.390000   0.000000
                CHANNELS 3 Xrotation Yrotation Zrotation
                JOINT rToeJoint
                {
                    OFFSET   0.000000  -0.050000   0.130000
                    CHANNELS 3 Xrotation Yrotation Zrotation
                    End Site
                    {
                        OFFSET  -0.010000   0.002000   0.060000
                    }
                }
            }
        }
    }
    JOINT lHip
    {
        OFFSET   0.100000  -0.051395   0.000000
        CHANNELS 3 Xrotation Yrotation Zrotation
        JOINT lKnee
        {
            OFFSET   0.000000  -0.410000   0.000000
            CHANNELS 3 Xrotation Yrotation Zrotation
            JOINT lAnkle
            {
                OFFSET   0.000000  -0.390000   0.000000
                CHANNELS 3 Xrotation Yrotation Zrotation
                JOINT lToeJoint
                {
                    OFFSET   0.000000  -0.050000   0.130000
                    CHANNELS 3 Xrotation Yrotation Zrotation
                    End Site
                    {
                        OFFSET   0.010000   0.002000   0.060000
                    }
                }
            }
        }
    }
}
MOTION
Frames: 15
Frame Time:   0.008333
 -2.524707   0.927367   3.764567  29.021665  13.218893 -10.231485   5.597099  -4.398037   2.012211   1.031251  -5.023672   7.436892  -0.355288   5.729747  -5.057810  -2.906894   6.054342 -11.512189 -17.161748  17.078598  13.428218   0.035677   6.460879   0.003382   2.455778  -3.014551 -11.156818  -1.721133 -16.880823  16.803563  -2.352874 -23.319534   2.546059   0.007856 -14.526227  -0.029807   6.525045  -6.702506   3.801437 -33.447995  -0.785123   1.595820   2.719193  -0.000314   0.000360  10.358514  -6.718162  -9.879207 -12.299146  -0.001527   0.000421 -20.493411  14.277848   0.097171  28.386627  -0.002880  -0.000153   0.130561  14.966770  -9.514918 -13.256909  -0.004968   0.006538
 -2.522991   0.928011   3.766016  28.801649  13.148558 -10.128221   5.468744  -4.239845   1.903589   1.161694  -4.998901   7.391296  -0.214126   5.932869  -5.100429  -2.814338   6.809621 -10.997182 -17.010560  18.192811  14.655845   0.045433   7.496983   0.001215   2.440011  -3.311684 -11.744678  -1.893059 -17.754210  16.375319  -2.595451 -24.590082   1.581576   0.014715 -15.901395  -0.035693   6.517436  -6.297219   4.297753 -33.125589  -0.723925   1.533903   2.676506  -0.000279   0.000312  10.545216  -6.732071  -9.847001 -12.776420  -0.001513   0.000454 -20.489968  14.295787   0.438299  28.802845  -0.003451   0.000108  -0.419559  15.108034  -9.462755 -11.932686  -0.007234   0.006113
 -2.521306   0.928723   3.767563  28.537679  13.098146 -10.024837   5.333801  -4.082995   1.784177   1.308631  -4.959982   7.347893  -0.108998   6.125519  -5.147835  -2.685466   7.619555 -10.395432 -16.904814  19.306249  15.940662   0.053856   8.502934  -0.000247   2.468957  -3.393648 -12.129444  -1.977558 -18.660341  15.884024  -2.834471 -25.877359   0.567817   0.021311 -17.243249  -0.039718   6.518122  -6.201806   4.663200 -32.777118  -0.677506   1.476918   2.687812  -0.000217   0.000243  10.733066  -6.754241  -9.810163 -13.294214  -0.001506   0.000493 -20.490695  14.300560   0.810397  29.196820  -0.003880   0.000351  -0.931976  15.240642  -9.412018 -10.711259  -0.008771   0.005772
 -2.519604   0.929478   3.769089  28.252648  13.071573  -9.915823   5.218658  -3.923115   1.665488   1.476043  -4.908758   7.309128  -0.031909   6.306821  -5.196892  -2.544803   8.444630  -9.766632 -16.838682  20.387420  17.218458   0.059998   9.458628  -0.001480   2.517566  -3.356027 -12.347473  -2.012459 -19.564619  15.373556  -3.075612 -27.131344  -0.448223   0.026663 -18.519343  -0.041505   6.526729  -6.277717   4.907908 -32.420522  -0.643009   1.406316   2.733344  -0.000145   0.000172  10.916756  -6.783004  -9.774649 -13.821993  -0.001530   0.000518 -20.516852  14.299220   1.185162  29.562027  -0.004109   0.000574  -1.410800  15.364309  -9.363068  -9.592177  -0.009511   0.005519
 -2.517862   0.930249   3.770554  27.959407  13.064448  -9.801689   5.131467  -3.758393   1.555218   1.662112  -4.845701   7.276543   0.030132   6.476870  -5.245309  -2.404732   9.259984  -9.144040 -16.805944  21.424474  18.459026   0.063840  10.361035  -0.002632   2.576770  -3.252783 -12.465280  -2.021884 -20.442460  14.868414  -3.320819 -28.330450  -1.442653   0.030523 -19.723363  -0.041405   6.540393  -6.440809   5.075696 -32.064183  -0.617025   1.318851   2.799022  -0.000073   0.000108  11.092987  -6.815697  -9.741937 -14.342383  -0.001579   0.000523 -20.575466  14.295265   1.552422  29.894684  -0.004154   0.000763  -1.858517  15.479379  -9.316135  -8.567507  -0.009608   0.005295
 -2.516064   0.931015   3.771950  27.665428  13.070932  -9.684238   5.072210  -3.588802   1.457054   1.862236  -4.771609   7.251162   0.084742   6.635988  -5.291687  -2.271730  10.051961  -8.544319 -16.801330  22.411876  19.647677   0.065649  11.210327  -0.003691   2.642026  -3.111585 -12.527367  -2.019905 -21.280589  14.381445  -3.570117 -29.464475  -2.402569   0.032941 -20.854338  -0.039922   6.557187  -6.646272   5.199000 -31.712349  -0.596656   1.216028   2.876174  -0.000004   0.000054  11.259033  -6.849856  -9.712357 -14.845594  -0.001642   0.000509 -20.666679  14.289849   1.908353  30.194259  -0.004055   0.000902  -2.277250  15.586350  -9.271305  -7.629347  -0.009251   0.005051
 -2.514201   0.931762   3.773287  27.375023  13.085729  -9.565392   5.037335  -3.415365   1.372315   2.071041  -4.687838   7.233434   0.135833   6.784658  -5.335272  -2.148782  10.812840  -7.974908 -16.820148  23.347130  20.778173   0.065780  12.007907  -0.004600   2.710555  -2.948347 -12.559498  -2.014497 -22.072312  13.918804  -3.822508 -30.529287  -3.321503   0.034092 -21.913692  -0.037531   6.575753  -6.868855   5.297731 -31.367090  -0.579738   1.100666   2.959675   0.000059   0.000011  11.413297  -6.883637  -9.685832 -15.327234  -0.001707   0.000480 -20.787187  14.283198   2.251505  30.462184  -0.003856   0.000990  -2.668894  15.685759  -9.228593  -6.770346  -0.008605   0.004760
 -2.512436   0.932418   3.774919  27.089479  13.051103  -9.514231   4.937801  -3.208391   1.326620   2.202282  -4.576220   7.186740   0.252147   6.910506  -5.370241  -1.968896  11.471576  -7.432472 -16.403774  24.532582  22.045360   0.073220  13.077064  -0.010353   2.680761  -3.101448 -12.829242  -2.066836 -22.742116  13.480638  -3.698959 -31.794170  -4.424705   0.045600 -23.726951  -0.035149   6.493826  -6.418735   5.537302 -31.032621  -0.626941   1.071536   3.067902   0.000120  -0.000099  11.587982  -6.844993  -9.585806 -15.868638  -0.001381   0.000518 -20.971716  14.371077   2.690019  30.695251  -0.003545   0.001169  -2.953610  15.756445  -9.210830  -6.033981  -0.007671   0.004786
 -2.510681   0.932712   3.776756  26.754661  13.048050  -9.436270   4.823048  -3.017037   1.243914   2.350252  -4.470075   7.130563   0.345241   7.029362  -5.407297  -1.765982  12.165063  -6.854414 -16.051110  25.704965  23.331014   0.078429  14.105098  -0.014456   2.695457  -3.093825 -12.924459  -2.041039 -23.449927  13.026392  -3.598777 -33.080248  -5.545790   0.054739 -25.481532  -0.033267   6.445389  -6.319186   5.623561 -30.647704  -0.723982   1.027270   3.263062   0.000204  -0.000338  11.880026  -6.858806  -9.482676 -18.046596  -0.001473   0.001918 -21.133757  14.456153   3.089463  30.917004  -0.003211   0.001300  -3.218986  15.822653  -9.193949  -5.357360  -0.006626   0.004735
 -2.508958   0.933239   3.778438  26.434032  13.005010  -9.442913   4.748728  -2.809928   1.220942   2.507743  -4.346843   7.107413   0.408955   7.143156  -5.445699  -1.570281  12.885077  -6.273195 -15.761971  26.849520  24.580901   0.081578  15.081747  -0.017586   2.732465  -2.979338 -12.936365  -1.981374 -24.167542  12.565370  -3.530181 -34.333946  -6.645430   0.061734 -27.140342  -0.030771   6.411139  -6.375387   5.643436 -30.278800  -0.744723   1.059306   3.401515   0.000260  -0.000353  11.924401  -6.793107  -9.384767 -18.164319  -0.001172   0.001510 -21.393042  14.522184   3.542524  31.098729  -0.002818   0.001273  -3.465937  15.885223  -9.177411  -4.729439  -0.005400   0.004364
 -2.507215   0.933798   3.780037  26.103164  12.970905  -9.455234   4.712947  -2.613135   1.192969   2.693470  -4.225340   7.093383   0.464590   7.249419  -5.480233  -1.384100  13.601144  -5.708625 -15.525711  27.952354  25.785687   0.082688  16.004726  -0.019968   2.782242  -2.802337 -12.887728  -1.904521 -24.876997  12.123662  -3.489831 -35.538971  -7.706687   0.066265 -28.701071  -0.028049   6.385197  -6.513859   5.609304 -29.911285  -0.774125   1.093492   3.547147   0.000310  -0.000368  12.023370  -6.741903  -9.284819 -18.408254  -0.000933   0.001171 -21.676712  14.579716   3.956841  31.249846  -0.002395   0.001185  -3.697582  15.943162  -9.161549  -4.155971  -0.004085   0.003896
 -2.505429   0.934332   3.781583  25.766595  12.941690  -9.471773   4.707096  -2.424025   1.165071   2.898415  -4.106752   7.082256   0.517259   7.348491  -5.513130  -1.210925  14.296838  -5.169390 -15.333824  29.004579  26.935443   0.081988  16.873568  -0.021614   2.839472  -2.589491 -12.805749  -1.820735 -25.563533  11.703186  -3.475102 -36.685661  -8.724453   0.068514 -30.165557  -0.025341   6.364400  -6.696563   5.543907 -29.545856  -0.809233   1.128486   3.703498   0.000360  -0.000387  12.129774  -6.700861  -9.190126 -18.707480  -0.000766   0.000911 -21.978058  14.632972   4.331985  31.377993  -0.001984   0.001066  -3.914594  15.996783  -9.146576  -3.632172  -0.002797   0.003385
 -2.503588   0.934818   3.783094  25.429076  12.911224  -9.495618   4.723564  -2.241710   1.139932   3.113946  -3.990804   7.073799   0.568458   7.440861  -5.544160  -1.051811  14.962672  -4.659177 -15.179157  30.001537  28.026212   0.079805  17.689125  -0.022570   2.900133  -2.358732 -12.708643  -1.735733 -26.217428  11.304917  -3.482581 -37.768225  -9.696673   0.068797 -31.536779  -0.022789   6.346627  -6.900010   5.460841 -29.183540  -0.845935   1.167775   3.865621   0.000407  -0.000407  12.232136  -6.665429  -9.100371 -19.035314  -0.000657   0.000716 -22.293275  14.682286   4.672579  31.486222  -0.001606   0.000932  -4.117735  16.046449  -9.132494  -3.153190  -0.001608   0.002852
 -2.501804   0.935053   3.784741  25.062527  12.974661  -9.527338   4.737782  -2.073532   1.122011   3.338617  -3.877099   7.019956   0.582117   7.533901  -5.504062  -0.858762  15.481184  -4.223412 -14.541690  31.305346  28.943778   0.085865  18.849767  -0.032077   2.828880  -2.486754 -12.655042  -1.600512 -26.658139  11.036396  -2.756081 -39.165297 -10.157142   0.083456 -33.703980  -0.006919   6.223689  -6.525595   5.402084 -28.911871  -0.968042   1.161033   4.373436   0.000758  -0.000635  12.022250  -6.573019  -8.858605 -19.216442  -0.000305   0.000590 -22.689291  14.743168   5.030203  31.718271  -0.001214   0.001110  -4.299319  16.067511  -9.112161  -2.711033  -0.000602   0.002713
 -2.500021   0.935230   3.786487  24.653436  13.068878  -9.577773   4.761370  -1.904211   1.109673   3.576906  -3.764596   6.975818   0.595199   7.622756  -5.469253  -0.668345  16.030394  -3.791151 -13.981239  32.584792  29.847176   0.089434  19.963109  -0.038928   2.809464  -2.453322 -12.504794  -1.433189 -27.140934  10.783961  -2.076201 -40.573248 -10.606579   0.094073 -35.793334   0.005048   6.154462  -6.532510   5.237541 -28.608360  -1.105373   1.171668   4.937417   0.001072  -0.000766  11.773040  -6.501531  -8.609697 -19.421491   0.000013   0.000501 -23.106422  14.796109   5.402987  31.938351  -0.000835   0.001270  -4.467505  16.087700  -9.093213  -2.301992   0.000327   0.002617
